<?xml version="1.0" encoding="utf-8"?>
<!-- Generator: Adobe Illustrator 24.1.0, SVG Export Plug-In . SVG Version: 6.00 Build 0)  -->
<svg version="1.1" id="Layer_1" xmlns="http://www.w3.org/2000/svg" xmlns:xlink="http://www.w3.org/1999/xlink" x="0px" y="0px"
	 width="400px" height="120px" viewBox="0 0 400 120" style="enable-background:new 0 0 400 120;" xml:space="preserve">
<style type="text/css">
	.st0{fill:#FFFFFF;}
	.st1{fill:none;stroke:#FFFFFF;stroke-width:1.5;stroke-linecap:round;}
	.st2{fill:none;stroke:#FFFFFF;stroke-width:2;stroke-linecap:round;}
	.st3{fill:none;stroke:#FFFFFF;}
	.st4{fill:#231F20;}
	.st5{fill:#3F3F3F;}
	.st6{opacity:0.75;fill:none;stroke:#000000;stroke-width:5;enable-background:new    ;}
	.st7{fill:#212121;}
	.st8{fill:none;stroke:#212121;stroke-width:5;}
	.st9{opacity:0.4;fill:#FFFFFF;enable-background:new    ;}
	.st10{opacity:0.6;fill:#FFFFFF;enable-background:new    ;}
	.st11{opacity:0.8;fill:#FFFFFF;enable-background:new    ;}
	.st12{opacity:0.9;fill:#FFFFFF;enable-background:new    ;}
	.st13{opacity:0.3;fill:#FFFFFF;enable-background:new    ;}
	.st14{opacity:0.5;fill:#FFFFFF;enable-background:new    ;}
	.st15{opacity:0.7;fill:#FFFFFF;enable-background:new    ;}
</style>
<path class="st0" d="M16.5,8.5c0.3,0.1,0.4,0.5,0.2,0.8c-0.1,0.1-0.1,0.2-0.2,0.2l-11.4,7c-0.5,0.3-0.8,0.1-0.8-0.5V2
	c0-0.5,0.4-0.8,0.8-0.5L16.5,8.5z"/>
<path class="st0" d="M24,1h2.2c0.6,0,1,0.4,1,1v14c0,0.6-0.4,1-1,1H24c-0.6,0-1-0.4-1-1V2C23,1.5,23.4,1,24,1z M33.8,1H36
	c0.6,0,1,0.4,1,1v14c0,0.6-0.4,1-1,1h-2.2c-0.6,0-1-0.4-1-1V2C32.8,1.5,33.2,1,33.8,1z"/>
<path class="st0" d="M81,1.4c0-0.6,0.4-1,1-1h5.4c0.6,0,0.7,0.3,0.3,0.7l-6,6C81.3,7.5,81,7.4,81,6.8V1.4z M81,17.2c0,0.6,0.4,1,1,1
	h5.4c0.6,0,0.7-0.3,0.3-0.7l-6-6c-0.4-0.4-0.7-0.3-0.7,0.3C81,11.8,81,17.2,81,17.2z M98.8,1.4c0-0.6-0.4-1-1-1h-5.4
	c-0.6,0-0.7,0.3-0.3,0.7l6,6c0.4,0.4,0.7,0.3,0.7-0.3C98.8,6.8,98.8,1.4,98.8,1.4z M98.8,17.2c0,0.6-0.4,1-1,1h-5.4
	c-0.6,0-0.7-0.3-0.3-0.7l6-6c0.4-0.4,0.7-0.3,0.7,0.3C98.8,11.8,98.8,17.2,98.8,17.2z"/>
<path class="st0" d="M112.7,5c0,0.6,0.4,1,1,1h4.1c0.6,0,0.7-0.3,0.3-0.7l-4.7-4.7c-0.4-0.4-0.7-0.3-0.7,0.3
	C112.7,0.9,112.7,5,112.7,5z M105.6,6c0.6,0,1-0.4,1-1V0.9c0-0.6-0.3-0.7-0.7-0.3l-4.7,4.7c-0.4,0.4-0.3,0.7,0.3,0.7
	C101.5,6,105.6,6,105.6,6z M106.6,13.1c0-0.6-0.4-1-1-1h-4.1c-0.6,0-0.7,0.3-0.3,0.7l4.7,4.7c0.4,0.4,0.7,0.3,0.7-0.3
	C106.6,17.2,106.6,13.1,106.6,13.1z M113.7,12.1c-0.6,0-1,0.4-1,1v4.1c0,0.5,0.3,0.7,0.7,0.3l4.7-4.7c0.4-0.4,0.3-0.7-0.3-0.7
	C117.8,12.1,113.7,12.1,113.7,12.1z"/>
<path class="st0" d="M67,5.8c-0.5,0.4-1.2,0.6-1.8,0.6H62c-0.6,0-1,0.4-1,1v5.7c0,0.6,0.4,1,1,1h4.2c0.3,0.2,0.5,0.4,0.8,0.6
	l3.5,2.6c0.4,0.3,0.8,0.1,0.8-0.4V3.5c0-0.5-0.4-0.7-0.8-0.4L67,5.8z"/>
<path class="st1" d="M73.9,2.5c0,0,3.9-0.8,3.9,7.7S73.9,18,73.9,18"/>
<path class="st1" d="M72.6,6.4c0,0,2.6-0.4,2.6,3.8s-2.6,3.9-2.6,3.9"/>
<path class="st0" d="M47,5.8c-0.5,0.4-1.2,0.6-1.8,0.6H42c-0.6,0-1,0.4-1,1v5.7c0,0.6,0.4,1,1,1h4.2c0.3,0.2,0.5,0.4,0.8,0.6
	l3.5,2.6c0.4,0.3,0.8,0.1,0.8-0.4V3.5c0-0.5-0.4-0.7-0.8-0.4L47,5.8z"/>
<path class="st2" d="M52.8,7l5.4,5.4 M52.8,12.4L58.2,7"/>
<path class="st3" d="M128.7,8.6c-6.2-4.2-6.5,7.8,0,3.9 M135.2,8.6c-6.2-4.2-6.5,7.8,0,3.9"/>
<path class="st0" d="M122.2,3.4h15.7v13.1h-15.7V3.4z M120.8,2v15.7h18.3V2H120.8z"/>
<path class="st0" d="M143.2,3h14c1.1,0,2,0.9,2,2v10c0,1.1-0.9,2-2,2h-14c-1.1,0-2-0.9-2-2V5C141.2,3.9,142.1,3,143.2,3z"/>
<path class="st4" d="M146.4,13.8c-0.8,0-1.6-0.4-2.1-1c-1.1-1.4-1-3.4,0.1-4.8c0.5-0.6,2-1.7,4.6,0.2L148.4,9
	c-1.4-1-2.6-1.1-3.3-0.3c-0.8,1-0.8,2.4-0.1,3.5c0.7,0.9,1.9,0.8,3.4-0.1l0.5,0.9C148.2,13.5,147.3,13.7,146.4,13.8L146.4,13.8z
	 M153.9,13.8c-0.8,0-1.6-0.4-2.1-1c-1.1-1.4-1-3.4,0.1-4.8c0.5-0.6,2-1.7,4.6,0.2L156,9c-1.4-1-2.6-1.1-3.3-0.3
	c-0.8,1-0.8,2.4-0.1,3.5c0.7,0.9,1.9,0.8,3.4-0.1l0.5,0.9C155.7,13.5,154.8,13.7,153.9,13.8L153.9,13.8z"/>
<path class="st5" d="M60.3,77c0.6,0.2,0.8,0.8,0.6,1.4c-0.1,0.3-0.3,0.5-0.6,0.6L30,96.5c-1,0.6-1.7,0.1-1.7-1v-35
	c0-1.1,0.8-1.5,1.7-1L60.3,77z"/>
<path class="st6" d="M2.5,79c0-20.7,16.8-37.5,37.5-37.5S77.5,58.3,77.5,79S60.7,116.5,40,116.5S2.5,99.7,2.5,79z"/>
<path class="st7" d="M140.3,77c0.6,0.2,0.8,0.8,0.6,1.4c-0.1,0.3-0.3,0.5-0.6,0.6L110,96.5c-1,0.6-1.7,0.1-1.7-1v-35
	c0-1.1,0.8-1.5,1.7-1L140.3,77z"/>
<path class="st8" d="M82.5,79c0-20.7,16.8-37.5,37.5-37.5s37.5,16.8,37.5,37.5s-16.8,37.5-37.5,37.5S82.5,99.7,82.5,79z"/>
<circle class="st0" cx="201.9" cy="47.1" r="8.1"/>
<circle class="st9" cx="233.9" cy="79" r="5"/>
<circle class="st10" cx="201.9" cy="110.9" r="6"/>
<circle class="st11" cx="170.1" cy="79" r="7"/>
<circle class="st12" cx="178.2" cy="56.3" r="7.5"/>
<circle class="st13" cx="226.3" cy="56.1" r="4.5"/>
<circle class="st14" cx="225.8" cy="102.8" r="5.5"/>
<circle class="st15" cx="178.2" cy="102.8" r="6.5"/>
<path class="st0" d="M178,9.4c0,0.4-0.4,0.7-0.9,0.7c-0.1,0-0.2,0-0.2-0.1L172,8.2c-0.5-0.2-0.6-0.6-0.1-0.8l6.2-3.6
	c0.5-0.3,0.8-0.1,0.7,0.5L178,9.4L178,9.4z"/>
<path class="st0" d="M169.4,15.9c-1,0-2-0.2-2.9-0.7c-2-1-3.2-3-3.2-5.2c0.1-3.4,2.9-6,6.3-6c2.5,0.1,4.8,1.7,5.6,4.1l0.1-0.1
	l2.1,1.1c-0.6-4.4-4.7-7.5-9.1-6.9c-3.9,0.6-6.9,3.9-7,7.9c0,2.9,1.7,5.6,4.3,7c1.2,0.6,2.5,0.9,3.8,1c2.6,0,5-1.2,6.6-3.3l-1.8-0.9
	C173,15.1,171.2,15.9,169.4,15.9L169.4,15.9z"/>
<path class="st0" d="M183.4,3.2c0.8,0,1.5,0.7,1.5,1.5s-0.7,1.5-1.5,1.5s-1.5-0.7-1.5-1.5C181.9,3.8,182.6,3.2,183.4,3.2z
	 M188.5,3.2h8.5c0.9,0,1.5,0.7,1.5,1.5s-0.7,1.5-1.5,1.5h-8.5c-0.9,0-1.5-0.7-1.5-1.5C186.9,3.8,187.6,3.2,188.5,3.2z M183.4,8.2
	c0.8,0,1.5,0.7,1.5,1.5s-0.7,1.5-1.5,1.5s-1.5-0.7-1.5-1.5C181.9,8.8,182.6,8.2,183.4,8.2z M188.5,8.2h8.5c0.9,0,1.5,0.7,1.5,1.5
	s-0.7,1.5-1.5,1.5h-8.5c-0.9,0-1.5-0.7-1.5-1.5C186.9,8.8,187.6,8.2,188.5,8.2z M183.4,13.2c0.8,0,1.5,0.7,1.5,1.5s-0.7,1.5-1.5,1.5
	s-1.5-0.7-1.5-1.5C181.9,13.8,182.6,13.2,183.4,13.2z M188.5,13.2h8.5c0.9,0,1.5,0.7,1.5,1.5s-0.7,1.5-1.5,1.5h-8.5
	c-0.9,0-1.5-0.7-1.5-1.5C186.9,13.8,187.6,13.2,188.5,13.2z"/>
</svg>
